# xmcd
#
# Track frame offsets:
#	150
#	27867
#	39145
#	52197
#	65152
#	74260
#	90922
#	104070
#	116277
#	126287
#	141557
#	153777
#	169427
#
# Disc length: 2435 seconds
#
# Revision: 2
# Processed by: cddbd v1.5.2PL0 Copyright (c) Steve Scherf et al.
# Submitted via: EasyCDDAExtractor 11.5.3.1
#
DISCID=b809810d
DTITLE=Jodle Johnny and Country Sanne - De 21 År
DYEAR=1988
DGENRE=Country
TTITLE0=Amagersangen
TTITLE1=Du er min drøm
TTITLE2=Lift på lift
TTITLE3=Kærligheden gør at Jorden drejer rundt
TTITLE4=Prøv og gæt
TTITLE5=En lille bar på Sdr. Boulevard
TTITLE6=Ensom herre
TTITLE7=Ønskedrømmen
TTITLE8=Hold da helt ferie
TTITLE9=Tilbage til baren igen
TTITLE10=Du gik fra mig
TTITLE11=Når lyset tændes på en regnvejredag
TTITLE12=En aften helt for os selv
EXTD=
EXTT0=
EXTT1=
EXTT2=
EXTT3=
EXTT4=
EXTT5=
EXTT6=
EXTT7=
EXTT8=
EXTT9=
EXTT10=
EXTT11=
EXTT12=
PLAYORDER=
